{
  "asset": {
    "generator": "Khronos glTF Blender I/O v3.2.40",
    "version": "2.0"
  },
  "scene": 0,
  "scenes": [
    {
      "name": "Scene",
      "nodes": [0, 1, 2, 3, 4, 5, 6, 7, 8, 9, 10, 11, 12, 13, 14, 15]
    }
  ],
  "nodes": [
    {
      "mesh": 0,
      "name": "Plane"
    },
    {
      "mesh": 1,
      "name": "PC Case",
      "scale": [0.38629186153411865, 1, 1]
    },
    {
      "mesh": 2,
      "name": "BackFan",
      "scale": [0.38629186153411865, 1, 1]
    },
    {
      "mesh": 3,
      "name": "Monitor",
      "translation": [0, 0, -2.0983643531799316]
    },
    {
      "mesh": 4,
      "name": "Knobs"
    },
    {
      "mesh": 5,
      "name": "Speaker1"
    },
    {
      "mesh": 6,
      "name": "AudioInterface",
      "scale": [0.17845632135868073, 0.08671589940786362, 0.27152419090270996],
      "translation": [0, 1.4223237037658691, 1.4304059743881226]
    },
    {
      "mesh": 7,
      "name": "KeyboardBse",
      "scale": [0.2831752300262451, 0.2831752300262451, 0.2831752300262451]
    },
    {
      "mesh": 8,
      "name": "KeyBoardKeys"
    },
    {
      "mesh": 9,
      "name": "Mouse"
    },
    {
      "mesh": 10,
      "name": "CPU",
      "scale": [0.38629186153411865, 1, 1]
    },
    {
      "mesh": 11,
      "name": "Motherboard",
      "scale": [0.2831752300262451, 0.2831752300262451, 0.2831752300262451]
    },
    {
      "mesh": 12,
      "name": "Monitor1",
      "translation": [0, 0, -3.724895477294922]
    },
    {
      "mesh": 13,
      "name": "Monitor2",
      "translation": [1.8077003955841064, 0, -3.724895477294922]
    },
    {
      "mesh": 14,
      "name": "Speaker2",
      "translation": [0, 0, -4.03469181060791]
    },
    {
      "mesh": 15,
      "name": "PCFans",
      "scale": [0.38629186153411865, 1, 1]
    }
  ],
  "materials": [
    {
      "doubleSided": true,
      "name": "M_Basic",
      "pbrMetallicRoughness": {
        "baseColorFactor": [
          0.800000011920929, 0.800000011920929, 0.800000011920929, 1
        ],
        "metallicFactor": 0
      }
    },
    {
      "doubleSided": true,
      "name": "M_Screen1",
      "pbrMetallicRoughness": {
        "baseColorFactor": [
          0.800000011920929, 0.800000011920929, 0.800000011920929, 1
        ],
        "metallicFactor": 0,
        "roughnessFactor": 0.5
      }
    }
  ],
  "meshes": [
    {
      "name": "Plane",
      "primitives": [
        {
          "attributes": {
            "POSITION": 0,
            "NORMAL": 1,
            "TEXCOORD_0": 2
          },
          "indices": 3,
          "material": 0
        }
      ]
    },
    {
      "name": "Cube.001",
      "primitives": [
        {
          "attributes": {
            "POSITION": 4,
            "NORMAL": 5,
            "TEXCOORD_0": 6
          },
          "indices": 7,
          "material": 0
        }
      ]
    },
    {
      "name": "Cube.002",
      "primitives": [
        {
          "attributes": {
            "POSITION": 8,
            "NORMAL": 9,
            "TEXCOORD_0": 10
          },
          "indices": 11,
          "material": 0
        }
      ]
    },
    {
      "name": "Cube.003",
      "primitives": [
        {
          "attributes": {
            "POSITION": 12,
            "NORMAL": 13,
            "TEXCOORD_0": 14
          },
          "indices": 15,
          "material": 0
        },
        {
          "attributes": {
            "POSITION": 16,
            "NORMAL": 17,
            "TEXCOORD_0": 18
          },
          "indices": 19,
          "material": 1
        }
      ]
    },
    {
      "name": "Cylinder",
      "primitives": [
        {
          "attributes": {
            "POSITION": 20,
            "NORMAL": 21,
            "TEXCOORD_0": 22
          },
          "indices": 23,
          "material": 0
        }
      ]
    },
    {
      "name": "Cube",
      "primitives": [
        {
          "attributes": {
            "POSITION": 24,
            "NORMAL": 25,
            "TEXCOORD_0": 26
          },
          "indices": 27,
          "material": 0
        }
      ]
    },
    {
      "name": "Cube.004",
      "primitives": [
        {
          "attributes": {
            "POSITION": 28,
            "NORMAL": 29,
            "TEXCOORD_0": 30
          },
          "indices": 31,
          "material": 0
        }
      ]
    },
    {
      "name": "Cube.005",
      "primitives": [
        {
          "attributes": {
            "POSITION": 32,
            "NORMAL": 33,
            "TEXCOORD_0": 34
          },
          "indices": 35,
          "material": 0
        }
      ]
    },
    {
      "name": "Cube.006",
      "primitives": [
        {
          "attributes": {
            "POSITION": 36,
            "NORMAL": 37,
            "TEXCOORD_0": 38
          },
          "indices": 39,
          "material": 0
        }
      ]
    },
    {
      "name": "Cube.007",
      "primitives": [
        {
          "attributes": {
            "POSITION": 40,
            "NORMAL": 41,
            "TEXCOORD_0": 42
          },
          "indices": 43,
          "material": 0
        }
      ]
    },
    {
      "name": "Cube.008",
      "primitives": [
        {
          "attributes": {
            "POSITION": 44,
            "NORMAL": 45,
            "TEXCOORD_0": 46
          },
          "indices": 47,
          "material": 0
        }
      ]
    },
    {
      "name": "Cube.009",
      "primitives": [
        {
          "attributes": {
            "POSITION": 48,
            "NORMAL": 49,
            "TEXCOORD_0": 50
          },
          "indices": 51,
          "material": 0
        }
      ]
    },
    {
      "name": "Cube.010",
      "primitives": [
        {
          "attributes": {
            "POSITION": 52,
            "NORMAL": 53,
            "TEXCOORD_0": 54
          },
          "indices": 55,
          "material": 0
        },
        {
          "attributes": {
            "POSITION": 56,
            "NORMAL": 57,
            "TEXCOORD_0": 58
          },
          "indices": 19,
          "material": 1
        }
      ]
    },
    {
      "name": "Cube.011",
      "primitives": [
        {
          "attributes": {
            "POSITION": 59,
            "NORMAL": 60,
            "TEXCOORD_0": 61
          },
          "indices": 62,
          "material": 0
        },
        {
          "attributes": {
            "POSITION": 63,
            "NORMAL": 64,
            "TEXCOORD_0": 65
          },
          "indices": 19,
          "material": 1
        }
      ]
    },
    {
      "name": "Cube.012",
      "primitives": [
        {
          "attributes": {
            "POSITION": 66,
            "NORMAL": 67,
            "TEXCOORD_0": 68
          },
          "indices": 27,
          "material": 0
        }
      ]
    },
    {
      "name": "Cube.013",
      "primitives": [
        {
          "attributes": {
            "POSITION": 69,
            "NORMAL": 70,
            "TEXCOORD_0": 71
          },
          "indices": 72,
          "material": 0
        }
      ]
    }
  ],
  "accessors": [
    {
      "bufferView": 0,
      "componentType": 5126,
      "count": 2279,
      "max": [3.549497365951538, 1.3364171981811523, 2.993436336517334],
      "min": [-1, -0.06698720157146454, -3.00716233253479],
      "type": "VEC3"
    },
    {
      "bufferView": 1,
      "componentType": 5126,
      "count": 2279,
      "type": "VEC3"
    },
    {
      "bufferView": 2,
      "componentType": 5126,
      "count": 2279,
      "type": "VEC2"
    },
    {
      "bufferView": 3,
      "componentType": 5123,
      "count": 5544,
      "type": "SCALAR"
    },
    {
      "bufferView": 4,
      "componentType": 5126,
      "count": 161,
      "max": [-0.9709529280662537, 2.7568795680999756, 2.5088751316070557],
      "min": [-2.3155882358551025, 1.3911513090133667, 1.1408770084381104],
      "type": "VEC3"
    },
    {
      "bufferView": 5,
      "componentType": 5126,
      "count": 161,
      "type": "VEC3"
    },
    {
      "bufferView": 6,
      "componentType": 5126,
      "count": 161,
      "type": "VEC2"
    },
    {
      "bufferView": 7,
      "componentType": 5123,
      "count": 420,
      "type": "SCALAR"
    },
    {
      "bufferView": 8,
      "componentType": 5126,
      "count": 469,
      "max": [-1.1307730674743652, 2.5757224559783936, 2.484879493713379],
      "min": [-2.091928005218506, 2.20357346534729, 2.449221134185791],
      "type": "VEC3"
    },
    {
      "bufferView": 9,
      "componentType": 5126,
      "count": 469,
      "type": "VEC3"
    },
    {
      "bufferView": 10,
      "componentType": 5126,
      "count": 469,
      "type": "VEC2"
    },
    {
      "bufferView": 11,
      "componentType": 5123,
      "count": 1404,
      "type": "SCALAR"
    },
    {
      "bufferView": 12,
      "componentType": 5126,
      "count": 284,
      "max": [0.3988601565361023, 2.443915605545044, 3.9841344356536865],
      "min": [-0.48244181275367737, 1.3296465873718262, 2.421391248703003],
      "type": "VEC3"
    },
    {
      "bufferView": 13,
      "componentType": 5126,
      "count": 284,
      "type": "VEC3"
    },
    {
      "bufferView": 14,
      "componentType": 5126,
      "count": 284,
      "type": "VEC2"
    },
    {
      "bufferView": 15,
      "componentType": 5123,
      "count": 990,
      "type": "SCALAR"
    },
    {
      "bufferView": 16,
      "componentType": 5126,
      "count": 12,
      "max": [0.376287043094635, 2.41658616065979, 3.8967409133911133],
      "min": [-0.3356470465660095, 1.5120532512664795, 2.4646599292755127],
      "type": "VEC3"
    },
    {
      "bufferView": 17,
      "componentType": 5126,
      "count": 12,
      "type": "VEC3"
    },
    {
      "bufferView": 18,
      "componentType": 5126,
      "count": 12,
      "type": "VEC2"
    },
    {
      "bufferView": 19,
      "componentType": 5123,
      "count": 36,
      "type": "SCALAR"
    },
    {
      "bufferView": 20,
      "componentType": 5126,
      "count": 1318,
      "max": [0.9676365256309509, 1.4760992527008057, 2.4149558544158936],
      "min": [-0.8411682844161987, 0.16811254620552063, -0.21816810965538025],
      "type": "VEC3"
    },
    {
      "bufferView": 21,
      "componentType": 5126,
      "count": 1318,
      "type": "VEC3"
    },
    {
      "bufferView": 22,
      "componentType": 5126,
      "count": 1318,
      "type": "VEC2"
    },
    {
      "bufferView": 23,
      "componentType": 5123,
      "count": 4200,
      "type": "SCALAR"
    },
    {
      "bufferView": 24,
      "componentType": 5126,
      "count": 3963,
      "max": [0.17118558287620544, 1.8974639177322388, 2.46315598487854],
      "min": [-0.42082953453063965, 1.3344961404800415, 2.0617570877075195],
      "type": "VEC3"
    },
    {
      "bufferView": 25,
      "componentType": 5126,
      "count": 3963,
      "type": "VEC3"
    },
    {
      "bufferView": 26,
      "componentType": 5126,
      "count": 3963,
      "type": "VEC2"
    },
    {
      "bufferView": 27,
      "componentType": 5123,
      "count": 21936,
      "type": "SCALAR"
    },
    {
      "bufferView": 28,
      "componentType": 5126,
      "count": 153,
      "max": [1, 1.0111719369888306, -4.347443103790283],
      "min": [-1, -0.9888281226158142, -6.347443103790283],
      "type": "VEC3"
    },
    {
      "bufferView": 29,
      "componentType": 5126,
      "count": 153,
      "type": "VEC3"
    },
    {
      "bufferView": 30,
      "componentType": 5126,
      "count": 153,
      "type": "VEC2"
    },
    {
      "bufferView": 31,
      "componentType": 5123,
      "count": 588,
      "type": "SCALAR"
    },
    {
      "bufferView": 32,
      "componentType": 5126,
      "count": 229,
      "max": [3.04295015335083, 5.0451860427856445, 2.4479217529296875],
      "min": [1.0429496765136719, 4.679425239562988, -2.4479217529296875],
      "type": "VEC3"
    },
    {
      "bufferView": 33,
      "componentType": 5126,
      "count": 229,
      "type": "VEC3"
    },
    {
      "bufferView": 34,
      "componentType": 5126,
      "count": 229,
      "type": "VEC2"
    },
    {
      "bufferView": 35,
      "componentType": 5123,
      "count": 924,
      "type": "SCALAR"
    },
    {
      "bufferView": 36,
      "componentType": 5126,
      "count": 4749,
      "max": [0.8374888896942139, 1.452844262123108, 0.6625409126281738],
      "min": [0.3286116123199463, 1.4212747812271118, -0.6578199863433838],
      "type": "VEC3"
    },
    {
      "bufferView": 37,
      "componentType": 5126,
      "count": 4749,
      "type": "VEC3"
    },
    {
      "bufferView": 38,
      "componentType": 5126,
      "count": 4749,
      "type": "VEC2"
    },
    {
      "bufferView": 39,
      "componentType": 5123,
      "count": 14160,
      "type": "SCALAR"
    },
    {
      "bufferView": 40,
      "componentType": 5126,
      "count": 648,
      "max": [0.6748457551002502, 1.4550496339797974, -1.0305383205413818],
      "min": [0.39530324935913086, 1.3676977157592773, -1.2112395763397217],
      "type": "VEC3"
    },
    {
      "bufferView": 41,
      "componentType": 5126,
      "count": 648,
      "type": "VEC3"
    },
    {
      "bufferView": 42,
      "componentType": 5126,
      "count": 648,
      "type": "VEC2"
    },
    {
      "bufferView": 43,
      "componentType": 5123,
      "count": 2280,
      "type": "SCALAR"
    },
    {
      "bufferView": 44,
      "componentType": 5126,
      "count": 452,
      "max": [-1.721466302871704, 2.5477797985076904, 2.1530654430389404],
      "min": [-2.101076602935791, 2.230548858642578, 1.8354666233062744],
      "type": "VEC3"
    },
    {
      "bufferView": 45,
      "componentType": 5126,
      "count": 452,
      "type": "VEC3"
    },
    {
      "bufferView": 46,
      "componentType": 5126,
      "count": 452,
      "type": "VEC2"
    },
    {
      "bufferView": 47,
      "componentType": 5123,
      "count": 1299,
      "type": "SCALAR"
    },
    {
      "bufferView": 48,
      "componentType": 5126,
      "count": 1001,
      "max": [-1.6145344972610474, 9.527214050292969, 8.783053398132324],
      "min": [-3.087085247039795, 5.090094566345215, 4.109716415405273],
      "type": "VEC3"
    },
    {
      "bufferView": 49,
      "componentType": 5126,
      "count": 1001,
      "type": "VEC3"
    },
    {
      "bufferView": 50,
      "componentType": 5126,
      "count": 1001,
      "type": "VEC2"
    },
    {
      "bufferView": 51,
      "componentType": 5123,
      "count": 3576,
      "type": "SCALAR"
    },
    {
      "bufferView": 52,
      "componentType": 5126,
      "count": 275,
      "max": [-0.30649587512016296, 2.443915605545044, 4.018939018249512],
      "min": [-0.8640595078468323, 1.3296465873718262, 2.3217544555664062],
      "type": "VEC3"
    },
    {
      "bufferView": 53,
      "componentType": 5126,
      "count": 275,
      "type": "VEC3"
    },
    {
      "bufferView": 54,
      "componentType": 5126,
      "count": 275,
      "type": "VEC2"
    },
    {
      "bufferView": 55,
      "componentType": 5123,
      "count": 1002,
      "type": "SCALAR"
    },
    {
      "bufferView": 56,
      "componentType": 5126,
      "count": 12,
      "max": [-0.31056639552116394, 2.41658616065979, 3.9706506729125977],
      "min": [-0.35195598006248474, 1.5120532512664795, 2.372431755065918],
      "type": "VEC3"
    },
    {
      "bufferView": 57,
      "componentType": 5126,
      "count": 12,
      "type": "VEC3"
    },
    {
      "bufferView": 58,
      "componentType": 5126,
      "count": 12,
      "type": "VEC2"
    },
    {
      "bufferView": 59,
      "componentType": 5126,
      "count": 272,
      "max": [-0.21375714242458344, 2.4414222240448, 2.125516653060913],
      "min": [-1.831273078918457, 1.3219468593597412, 1.2509181499481201],
      "type": "VEC3"
    },
    {
      "bufferView": 60,
      "componentType": 5126,
      "count": 272,
      "type": "VEC3"
    },
    {
      "bufferView": 61,
      "componentType": 5126,
      "count": 272,
      "type": "VEC2"
    },
    {
      "bufferView": 62,
      "componentType": 5123,
      "count": 990,
      "type": "SCALAR"
    },
    {
      "bufferView": 63,
      "componentType": 5126,
      "count": 12,
      "max": [-0.25876879692077637, 2.4100849628448486, 2.1046440601348877],
      "min": [-1.7484638690948486, 1.5025399923324585, 1.4604194164276123],
      "type": "VEC3"
    },
    {
      "bufferView": 64,
      "componentType": 5126,
      "count": 12,
      "type": "VEC3"
    },
    {
      "bufferView": 65,
      "componentType": 5126,
      "count": 12,
      "type": "VEC2"
    },
    {
      "bufferView": 66,
      "componentType": 5126,
      "count": 3963,
      "max": [2.037140130996704, 1.8974637985229492, 2.022700309753418],
      "min": [1.5805385112762451, 1.3344961404800415, 1.4175792932510376],
      "type": "VEC3"
    },
    {
      "bufferView": 67,
      "componentType": 5126,
      "count": 3963,
      "type": "VEC3"
    },
    {
      "bufferView": 68,
      "componentType": 5126,
      "count": 3963,
      "type": "VEC2"
    },
    {
      "bufferView": 69,
      "componentType": 5126,
      "count": 1871,
      "max": [-1.1307730674743652, 2.7310373783111572, 2.4137330055236816],
      "min": [-2.1857190132141113, 2.227565050125122, 1.185308575630188],
      "type": "VEC3"
    },
    {
      "bufferView": 70,
      "componentType": 5126,
      "count": 1871,
      "type": "VEC3"
    },
    {
      "bufferView": 71,
      "componentType": 5126,
      "count": 1871,
      "type": "VEC2"
    },
    {
      "bufferView": 72,
      "componentType": 5123,
      "count": 5634,
      "type": "SCALAR"
    }
  ],
  "bufferViews": [
    {
      "buffer": 0,
      "byteLength": 27348,
      "byteOffset": 0
    },
    {
      "buffer": 0,
      "byteLength": 27348,
      "byteOffset": 27348
    },
    {
      "buffer": 0,
      "byteLength": 18232,
      "byteOffset": 54696
    },
    {
      "buffer": 0,
      "byteLength": 11088,
      "byteOffset": 72928
    },
    {
      "buffer": 0,
      "byteLength": 1932,
      "byteOffset": 84016
    },
    {
      "buffer": 0,
      "byteLength": 1932,
      "byteOffset": 85948
    },
    {
      "buffer": 0,
      "byteLength": 1288,
      "byteOffset": 87880
    },
    {
      "buffer": 0,
      "byteLength": 840,
      "byteOffset": 89168
    },
    {
      "buffer": 0,
      "byteLength": 5628,
      "byteOffset": 90008
    },
    {
      "buffer": 0,
      "byteLength": 5628,
      "byteOffset": 95636
    },
    {
      "buffer": 0,
      "byteLength": 3752,
      "byteOffset": 101264
    },
    {
      "buffer": 0,
      "byteLength": 2808,
      "byteOffset": 105016
    },
    {
      "buffer": 0,
      "byteLength": 3408,
      "byteOffset": 107824
    },
    {
      "buffer": 0,
      "byteLength": 3408,
      "byteOffset": 111232
    },
    {
      "buffer": 0,
      "byteLength": 2272,
      "byteOffset": 114640
    },
    {
      "buffer": 0,
      "byteLength": 1980,
      "byteOffset": 116912
    },
    {
      "buffer": 0,
      "byteLength": 144,
      "byteOffset": 118892
    },
    {
      "buffer": 0,
      "byteLength": 144,
      "byteOffset": 119036
    },
    {
      "buffer": 0,
      "byteLength": 96,
      "byteOffset": 119180
    },
    {
      "buffer": 0,
      "byteLength": 72,
      "byteOffset": 119276
    },
    {
      "buffer": 0,
      "byteLength": 15816,
      "byteOffset": 119348
    },
    {
      "buffer": 0,
      "byteLength": 15816,
      "byteOffset": 135164
    },
    {
      "buffer": 0,
      "byteLength": 10544,
      "byteOffset": 150980
    },
    {
      "buffer": 0,
      "byteLength": 8400,
      "byteOffset": 161524
    },
    {
      "buffer": 0,
      "byteLength": 47556,
      "byteOffset": 169924
    },
    {
      "buffer": 0,
      "byteLength": 47556,
      "byteOffset": 217480
    },
    {
      "buffer": 0,
      "byteLength": 31704,
      "byteOffset": 265036
    },
    {
      "buffer": 0,
      "byteLength": 43872,
      "byteOffset": 296740
    },
    {
      "buffer": 0,
      "byteLength": 1836,
      "byteOffset": 340612
    },
    {
      "buffer": 0,
      "byteLength": 1836,
      "byteOffset": 342448
    },
    {
      "buffer": 0,
      "byteLength": 1224,
      "byteOffset": 344284
    },
    {
      "buffer": 0,
      "byteLength": 1176,
      "byteOffset": 345508
    },
    {
      "buffer": 0,
      "byteLength": 2748,
      "byteOffset": 346684
    },
    {
      "buffer": 0,
      "byteLength": 2748,
      "byteOffset": 349432
    },
    {
      "buffer": 0,
      "byteLength": 1832,
      "byteOffset": 352180
    },
    {
      "buffer": 0,
      "byteLength": 1848,
      "byteOffset": 354012
    },
    {
      "buffer": 0,
      "byteLength": 56988,
      "byteOffset": 355860
    },
    {
      "buffer": 0,
      "byteLength": 56988,
      "byteOffset": 412848
    },
    {
      "buffer": 0,
      "byteLength": 37992,
      "byteOffset": 469836
    },
    {
      "buffer": 0,
      "byteLength": 28320,
      "byteOffset": 507828
    },
    {
      "buffer": 0,
      "byteLength": 7776,
      "byteOffset": 536148
    },
    {
      "buffer": 0,
      "byteLength": 7776,
      "byteOffset": 543924
    },
    {
      "buffer": 0,
      "byteLength": 5184,
      "byteOffset": 551700
    },
    {
      "buffer": 0,
      "byteLength": 4560,
      "byteOffset": 556884
    },
    {
      "buffer": 0,
      "byteLength": 5424,
      "byteOffset": 561444
    },
    {
      "buffer": 0,
      "byteLength": 5424,
      "byteOffset": 566868
    },
    {
      "buffer": 0,
      "byteLength": 3616,
      "byteOffset": 572292
    },
    {
      "buffer": 0,
      "byteLength": 2598,
      "byteOffset": 575908
    },
    {
      "buffer": 0,
      "byteLength": 12012,
      "byteOffset": 578508
    },
    {
      "buffer": 0,
      "byteLength": 12012,
      "byteOffset": 590520
    },
    {
      "buffer": 0,
      "byteLength": 8008,
      "byteOffset": 602532
    },
    {
      "buffer": 0,
      "byteLength": 7152,
      "byteOffset": 610540
    },
    {
      "buffer": 0,
      "byteLength": 3300,
      "byteOffset": 617692
    },
    {
      "buffer": 0,
      "byteLength": 3300,
      "byteOffset": 620992
    },
    {
      "buffer": 0,
      "byteLength": 2200,
      "byteOffset": 624292
    },
    {
      "buffer": 0,
      "byteLength": 2004,
      "byteOffset": 626492
    },
    {
      "buffer": 0,
      "byteLength": 144,
      "byteOffset": 628496
    },
    {
      "buffer": 0,
      "byteLength": 144,
      "byteOffset": 628640
    },
    {
      "buffer": 0,
      "byteLength": 96,
      "byteOffset": 628784
    },
    {
      "buffer": 0,
      "byteLength": 3264,
      "byteOffset": 628880
    },
    {
      "buffer": 0,
      "byteLength": 3264,
      "byteOffset": 632144
    },
    {
      "buffer": 0,
      "byteLength": 2176,
      "byteOffset": 635408
    },
    {
      "buffer": 0,
      "byteLength": 1980,
      "byteOffset": 637584
    },
    {
      "buffer": 0,
      "byteLength": 144,
      "byteOffset": 639564
    },
    {
      "buffer": 0,
      "byteLength": 144,
      "byteOffset": 639708
    },
    {
      "buffer": 0,
      "byteLength": 96,
      "byteOffset": 639852
    },
    {
      "buffer": 0,
      "byteLength": 47556,
      "byteOffset": 639948
    },
    {
      "buffer": 0,
      "byteLength": 47556,
      "byteOffset": 687504
    },
    {
      "buffer": 0,
      "byteLength": 31704,
      "byteOffset": 735060
    },
    {
      "buffer": 0,
      "byteLength": 22452,
      "byteOffset": 766764
    },
    {
      "buffer": 0,
      "byteLength": 22452,
      "byteOffset": 789216
    },
    {
      "buffer": 0,
      "byteLength": 14968,
      "byteOffset": 811668
    },
    {
      "buffer": 0,
      "byteLength": 11268,
      "byteOffset": 826636
    }
  ],
  "buffers": [
    {
      "byteLength": 837904,
      "uri": "data:application/octet-stream;base64,"
    }
  ]
}
